<svg width="80" height="58" viewBox="0 0 80 58" fill="none" xmlns="http://www.w3.org/2000/svg">
<path d="M63.3334 26.5833H23.8L35.9 16.0467C36.4658 15.5532 36.738 14.9169 36.6568 14.2779C36.5755 13.6388 36.1474 13.0494 35.4667 12.6392C34.786 12.229 33.9084 12.0316 33.027 12.0905C32.1455 12.1495 31.3325 12.4598 30.7667 12.9533L14.1 27.4533C13.9879 27.5687 13.8876 27.6898 13.8 27.8158C13.8 27.9367 13.8 28.0092 13.5667 28.13C13.4156 28.4071 13.3365 28.7021 13.3334 29C13.3365 29.298 13.4156 29.5929 13.5667 29.87C13.5667 29.9908 13.5667 30.0633 13.8 30.1842C13.8876 30.3102 13.9879 30.4313 14.1 30.5467L30.7667 45.0467C31.0801 45.3195 31.4726 45.5389 31.9162 45.6892C32.3598 45.8396 32.8437 45.9173 33.3334 45.9167C34.1122 45.9178 34.867 45.7211 35.4667 45.3609C35.8042 45.158 36.0832 44.9088 36.2878 44.6276C36.4923 44.3465 36.6182 44.0388 36.6585 43.7223C36.6988 43.4058 36.6525 43.0866 36.5223 42.783C36.3922 42.4795 36.1807 42.1976 35.9 41.9534L23.8 31.4167H63.3334C64.2174 31.4167 65.0653 31.1621 65.6904 30.7089C66.3155 30.2556 66.6667 29.641 66.6667 29C66.6667 28.3591 66.3155 27.7444 65.6904 27.2912C65.0653 26.838 64.2174 26.5833 63.3334 26.5833Z" fill="#2A2B2E"/>
</svg>
